<svg xmlns="http://www.w3.org/2000/svg" width="1500" height="1000">
  <linearGradient id="jn" gradientUnits="userSpaceOnUse" x1="750" y1="1002.218" x2="750" y2="124.163">
    <stop offset="0" stop-color="#4190a3"/>
    <stop offset=".424" stop-color="#f0c6ab"/>
    <stop offset=".509" stop-color="#fccaac"/>
    <stop offset=".714" stop-color="#fdeddb"/>
    <stop offset=".971" stop-color="#f2f5ee"/>
  </linearGradient>
  <path fill="url(#jn)" d="M0 0h1500v1000H0z"/>
  <g opacity=".5" fill="#FFF">
    <path d="M0 314.371v-22.41c82.6-24.32 128.879-24.012 160 1.039 35.27 28.391 80 10 110 10s75 0 85 10c7.539 7.539-235.23 3.711-355 1.371zM989 143c105-35 159.732-38.389 195-10 35.266 28.389 80 10 110 10s75 0 85 10-420 0-420 0l30-10zM1500 222.029v40.602c-136.061.92-387.381 2.229-385-.631 30-36 134-7 167-26 40.15-23.109 133-4 158-4 18.02 0 38.65-5.199 60-9.971z"/>
  </g>
  <circle opacity=".2" fill="#FF804A" cx="202.5" cy="498.5" r="95.24"/>
  <path fill="#E7C4AE" d="M1500 1000V428.363L1460 443l-70-20-160 50-195-70-185 55-122-20-54.826 19L623 433l-60 20-75-25L0 557.621V1000z"/>
  <linearGradient id="jo" gradientUnits="userSpaceOnUse" x1="750" y1="408.466" x2="750" y2="996.617">
    <stop offset="0" stop-color="#ffb896"/>
    <stop offset=".059" stop-color="#f0b294"/>
    <stop offset=".171" stop-color="#c9a18e"/>
    <stop offset=".326" stop-color="#8a8785"/>
    <stop offset=".339" stop-color="#848484"/>
    <stop offset=".455" stop-color="#667379"/>
    <stop offset=".595" stop-color="#49636f"/>
    <stop offset=".734" stop-color="#345768"/>
    <stop offset=".87" stop-color="#275063"/>
    <stop offset="1" stop-color="#234e62"/>
  </linearGradient>
  <path fill="url(#jo)" d="M1500 1000V485.648L1475 468l-65 15-170-85-200 82-190-60-265 80-285-65-140 30L0 418.092V1000z"/>
  <path fill="#203D57" d="M1500 666.168L845 510l-39.049-.119L695 484.896l-49.332 19.834-105.234-29.029-76.135-6.687-39.627 26.451-49.891-4.637-218.873 134.315-34.959 64.984L0 765v235h1500z"/>
  <linearGradient id="jp" gradientUnits="userSpaceOnUse" x1="452.293" y1="339.477" x2="1473.855" y2="843.599">
    <stop offset="0" stop-color="#887670"/>
    <stop offset=".589" stop-color="#385968"/>
    <stop offset=".896" stop-color="#274858"/>
    <stop offset=".988" stop-color="#214252"/>
  </linearGradient>
  <path fill="url(#jp)" d="M1500 666.168L845 510l-39.049-.119L695 484.896l-49.332 19.834-105.234-29.029-76.135-6.687-39.627 26.451-49.891-4.637L1405.096 1000H1500z"/>
  <linearGradient id="jq" gradientUnits="userSpaceOnUse" x1="624.524" y1="577.755" x2="707.482" y2="1026.7">
    <stop offset="0" stop-color="#385968"/>
    <stop offset="1" stop-color="#203d57"/>
  </linearGradient>
  <path fill="url(#jq)" d="M0 1000V765l120.949-74.873 34.959-64.984 218.873-134.315L1405.096 1000z"/>
  <radialGradient id="jr" cx="378.748" cy="496.167" r="1135.767" gradientUnits="userSpaceOnUse">
    <stop offset="0" stop-color="#887670"/>
    <stop offset=".025" stop-color="#7e716d"/>
    <stop offset=".113" stop-color="#616365"/>
    <stop offset=".211" stop-color="#4a575e"/>
    <stop offset=".322" stop-color="#374d59"/>
    <stop offset=".454" stop-color="#2b4755"/>
    <stop offset=".627" stop-color="#234353"/>
    <stop offset="1" stop-color="#214252"/>
  </radialGradient>
  <path opacity=".5" fill="url(#jr)" d="M0 1000V765l120.949-74.873 34.959-64.984 218.873-134.315L1405.096 1000z"/>
  <linearGradient id="js" gradientUnits="userSpaceOnUse" x1="374.781" y1="745.414" x2="1500" y2="745.414">
    <stop offset="0" stop-color="#b37e60"/>
    <stop offset=".589" stop-color="#385968"/>
    <stop offset=".896" stop-color="#274858"/>
    <stop offset=".988" stop-color="#214252"/>
  </linearGradient>
  <path opacity=".3" fill="url(#js)" d="M374.781 490.828l49.891 4.637L1500 920v80h-94.904z"/>
  <linearGradient id="jt" gradientUnits="userSpaceOnUse" x1="464.299" y1="642.906" x2="1500" y2="642.906">
    <stop offset="0" stop-color="#b37e60"/>
    <stop offset=".589" stop-color="#385968"/>
    <stop offset=".896" stop-color="#274858"/>
    <stop offset=".988" stop-color="#214252"/>
  </linearGradient>
  <path opacity=".3" fill="url(#jt)" d="M464.299 469.014l76.135 6.687L1500 740.412v76.387z"/>
  <linearGradient id="ju" gradientUnits="userSpaceOnUse" x1="841" y1="511.242" x2="1492.684" y2="670.838">
    <stop offset="0" stop-color="#ab8176"/>
    <stop offset=".038" stop-color="#9d7c74"/>
    <stop offset=".141" stop-color="#7e7171"/>
    <stop offset=".255" stop-color="#65686d"/>
    <stop offset=".379" stop-color="#51626b"/>
    <stop offset=".521" stop-color="#435d69"/>
    <stop offset=".696" stop-color="#3a5a68"/>
    <stop offset="1" stop-color="#385968"/>
  </linearGradient>
  <path fill="url(#ju)" d="M805.951 509.881L845 505l655 161.168z"/>
  <linearGradient id="jv" gradientUnits="userSpaceOnUse" x1="1028.304" y1="718.273" x2="1084.494" y2="1095.55">
    <stop offset="0" stop-color="#193140"/>
    <stop offset="1" stop-color="#22405c"/>
  </linearGradient>
  <path fill="url(#jv)" d="M630.207 1000L1160 820l160 40 180 70.719V1000z"/>
  <path fill="#172D3B" d="M1500 835.852L1330 1000h170z"/>
  <path opacity=".2" fill="#172D3B" d="M0 835.852L740.818 1000H0z"/>
</svg>