<svg xmlns="http://www.w3.org/2000/svg" width="1920" height="1120"><radialGradient id="u" cx="970.917" cy="2444.9385" r="1492.4835" gradientTransform="matrix(1 0 0 .7223 0 -1087.7598)" gradientUnits="userSpaceOnUse"><stop offset="0" stop-color="#f7e6b7"/><stop offset=".1284" stop-color="#f1d8b8"/><stop offset=".3728" stop-color="#e2b2bb"/><stop offset=".7046" stop-color="#ca75c0"/><stop offset="1" stop-color="#b23ac5"/></radialGradient><path fill="url(#u)" d="M0 0h1920v1120H0z"/><path opacity=".3" fill="#3ACFE8" d="M1920 553.838s-27.84 31.404-69.997 30.664c-46.731-.818-90.192 21.648-134.37 12.563-48.574-9.992-168.967-63.914-227.846-54.309-66.3 10.816-166.4 38.422-213.334 30.295-30.805-5.336-97.501-39.9-134.826-39.9-37.326 0-56.045 67.607-222.766 70.563-56.088.996-138.108-39.16-182.898-39.898-38.954-.643-99.523 33.988-159.258 33.988-43.548 0-174.519-42.443-205.293-42.117-69.676.74-79.652 10.064-246.375 22.625C75.988 581.855 0 566.031 0 566.031v337.303h1920V553.838z"/><linearGradient id="v" gradientUnits="userSpaceOnUse" x1="960.0005" y1="903.334" x2="960.0005" y2="515.9741"><stop offset="0" stop-color="#3acfe8"/><stop offset=".1756" stop-color="#40c9e6"/><stop offset=".4094" stop-color="#51b8e0"/><stop offset=".6761" stop-color="#6c9cd5"/><stop offset=".9652" stop-color="#9276c7"/><stop offset="1" stop-color="#9771c5"/></linearGradient><path fill="url(#v)" d="M0 570.463s80.477 23.617 120.747 31.404c13.54 2.617 72.525-27.072 81.92-22.906 34.986 15.516 62.086 56.895 95.373 56.895 36.894 0 45.526-33.988 74.44-34.729 32.051-.818 61.86 21.648 92.159 12.563 33.314-9.992 100.693-69.457 133.096-50.984 42.171 24.043 87.549-50.895 112.652-46.549 21.346 3.693 55.479 31.771 81.079 31.771 25.6 0 106.667 69.455 221.012 72.41 38.468.994 94.722-39.16 125.44-39.898 26.718-.643 68.259 33.988 109.228 33.988 29.867 0 119.693-42.443 140.8-42.117 47.787.74 129.707 84.234 244.054 96.795 32.269 3.545 58.026-39.9 111.786-46.551 53.761-6.648 49.494 19.951 95.574 16.996 19.442-1.248 80.64-56.895 80.64-56.895v320.678H0V570.463z"/><linearGradient id="w" gradientUnits="userSpaceOnUse" x1="960.0005" y1="1110.4063" x2="960.0005" y2="655.9492"><stop offset="0" stop-color="#2f134f"/><stop offset=".2147" stop-color="#301552"/><stop offset=".3759" stop-color="#321a5c"/><stop offset=".5197" stop-color="#36226c"/><stop offset=".6533" stop-color="#3b2e83"/><stop offset=".7798" stop-color="#433da0"/><stop offset=".8994" stop-color="#4b50c4"/><stop offset="1" stop-color="#5463e8"/></linearGradient><path fill="url(#w)" d="M0 602.605s152.32 96.426 193.28 97.533c29.949.811 160-70.934 216.319-64.283 44.948 5.307 211.05 88.098 277.761 77.584 34.082-5.373 81.92-63.176 162.56-57.635 65.275 4.486 177.92 79.801 188.16 79.801s32-12.191 64-8.867c27.331 2.84 96.102 30.004 126.822 34.438 30.72 4.434 145.911-74.809 176.631-68.158 30.721 6.65 156.934-74.656 180.471-73.146 34.561 2.217 85.066 45.039 105.596 49.873 17.303 4.074 72.832 14.211 90.16 18.203 58.61 13.504 138.24 66.5 138.24 66.5V1120H0V602.605z"/><g opacity=".7" fill="#F7E6B7"><path d="M157.25 202.896c-5.1.227-4.739 8.377.36 8.152 5.1-.226 4.74-8.376-.36-8.152zM1826.777 468.033c-5.1.227-4.739 8.377.36 8.152 5.1-.226 4.74-8.376-.36-8.152zM1838.776 96.053c-5.1.225-4.739 8.377.36 8.15 5.1-.224 4.74-8.375-.36-8.15zM248.637 50.955c-6.119.27-5.759 8.42.36 8.15 5.1-.224 4.739-8.376-.36-8.15zM1471.299 177.525c-5.1.225-4.739 8.375.36 8.15s4.739-8.376-.36-8.15zM884.824 120.051c-5.1.227-4.739 8.377.36 8.152 5.1-.226 4.74-8.377-.36-8.152zM57.298 91.631c-6.119.271-5.759 8.422.36 8.15 5.1-.224 4.739-8.375-.36-8.15zM494.245 58.992c-3.06.135-2.834 5.227.226 5.09 4.079-.18 3.854-5.271-.226-5.09zM114.224 443.188c-3.061.135-2.835 5.227.225 5.09 3.059-.135 2.834-5.227-.225-5.09zM356.774 185.568c-3.06.135-2.835 5.227.225 5.092s2.835-5.226-.225-5.092zM1033.313 47.92c-3.06.135-2.835 5.227.225 5.092 3.06-.137 2.835-5.227-.225-5.092zM680.97 93.113c-3.06.135-2.835 5.227.225 5.09 4.079-.18 3.855-5.271-.225-5.09z"/></g><path opacity=".3" fill="#FFF" d="M1655.22 241.174c1.077-.125 2.173-.189 3.287-.189 15.579 0 28.212 12.631 28.212 28.211 0 15.582-12.633 28.215-28.212 28.215-1.114 0-2.21-.064-3.287-.189 14.031-1.629 24.925-13.553 24.925-28.025 0-14.47-10.894-26.394-24.925-28.023z"/></svg>