<svg xmlns="http://www.w3.org/2000/svg" width="1920" height="1120"><linearGradient id="a" gradientUnits="userSpaceOnUse" x1="960.0005" y1="1917.3555" x2="960.0004" y2="-3.7909"><stop offset="0" stop-color="#98abdf"/><stop offset=".0646" stop-color="#9dade0"/><stop offset=".1455" stop-color="#adb2e1"/><stop offset=".2353" stop-color="#c6bbe4"/><stop offset=".3307" stop-color="#eac8e8"/><stop offset=".3454" stop-color="#f0cae9"/><stop offset=".4919" stop-color="#f3d5e7"/><stop offset=".6347" stop-color="#f6e5e5"/><stop offset=".6676" stop-color="#f4dae7"/><stop offset=".7254" stop-color="#f1cee8"/><stop offset=".7817" stop-color="#f0cae9"/><stop offset=".9926" stop-color="#9dabdf"/></linearGradient><path fill="url(#a)" d="M0 0h1920v1120H0z"/><path fill="#1E3152" d="M0 900h1920v220H0z"/><linearGradient id="b" gradientUnits="userSpaceOnUse" x1=".7949" y1="774.5947" x2="1947.1428" y2="774.5947"><stop offset="0" stop-color="#fff"/><stop offset="1" stop-color="#f0cae9"/></linearGradient><path opacity=".4" fill="url(#b)" d="M851.583 808.128H.795v-67.066l1701.576 34.508z"/><linearGradient id="c" gradientUnits="userSpaceOnUse" x1=".7949" y1="557.7793" x2="557.3252" y2="557.7793"><stop offset="0" stop-color="#fff"/><stop offset="1" stop-color="#f0cae9"/></linearGradient><path opacity=".4" fill="url(#c)" d="M272.589 561.329l-39.687-28.841H.795v50.582l209.67-15.853 31.062 10.05h315.798z"/><linearGradient id="d" gradientUnits="userSpaceOnUse" x1="941.1396" y1="548.3677" x2="1461.8477" y2="548.3677"><stop offset="0" stop-color="#fff"/><stop offset="1" stop-color="#f0cae9"/></linearGradient><path opacity=".4" fill="url(#d)" d="M1205.972 541.124L941.14 555.517h230.288l19.191-4.735 271.229 4.829z"/><linearGradient id="e" gradientUnits="userSpaceOnUse" x1="1337.748" y1="-61.209" x2="2328.1389" y2="-61.209" gradientTransform="matrix(1 0 0 -1 0 610)"><stop offset="0" stop-color="#fff"/><stop offset=".3392" stop-color="#fbf1f9"/><stop offset=".9822" stop-color="#f0cbe9"/><stop offset="1" stop-color="#f0cae9"/></linearGradient><path opacity=".4" fill="url(#e)" d="M1558.551 692.833l-220.803-10.297 257.604-45.308 177.311 25.743 147.202-11.327v53.546z"/><g><linearGradient id="f" gradientUnits="userSpaceOnUse" x1="440.9111" y1="18.4229" x2="952.4408" y2="908.0398"><stop offset=".0051" stop-color="#e6ebff"/><stop offset=".2524" stop-color="#d7def9"/><stop offset=".7289" stop-color="#afbbe9"/><stop offset="1" stop-color="#95a5df"/></linearGradient><path fill="url(#f)" d="M344.643 900l-50.315-81.378 61.908-24.646 92.206-136.578 94.522-70.039 31.51-66.519 39.677-35.02 53.668 35.001 5.834-17.501h35.001l143.504 96.837 25.668-3.5 5.833-23.334 23.335-5.834 58.335 35.22 5.833-5.942 17.501 11.612 5.833-17.556 23.334-5.819 255.801 93.322 6.27-5.834 81.888 58.336 5.943-11.667 17.556 5.833L1554.515 900z"/><path opacity=".7" fill="#E6EBFF" d="M1458.119 900l-492.79-297.291 5.833-5.942 17.501 11.612 5.833-17.556 23.334-5.819 255.801 93.322 6.27-5.834 81.888 58.336 5.943-11.667 17.556 5.833L1554.515 900z"/><path fill="#747EB6" d="M231.472 900l62.856-81.378 61.908-24.646 92.206-136.578 94.522-70.039 31.51-66.519 39.677-35.02-4.667 64.168L974.639 900z"/><linearGradient id="g" gradientUnits="userSpaceOnUse" x1="609.9736" y1="461.7646" x2="1194.2878" y2="847.8658"><stop offset="0" stop-color="#747eb6"/><stop offset=".5907" stop-color="#8c9cd1"/><stop offset=".9949" stop-color="#98abdf"/></linearGradient><path fill="url(#g)" d="M673.653 503.32l315.01 187.84-320.844-170.339z"/><linearGradient id="h" gradientUnits="userSpaceOnUse" x1="635.5879" y1="422.998" x2="1219.9023" y2="809.0995"><stop offset="0" stop-color="#747eb6"/><stop offset=".5907" stop-color="#8c9cd1"/><stop offset=".9949" stop-color="#98abdf"/></linearGradient><path fill="url(#h)" d="M883.659 573.323l-5.833 23.334 134.171 70.002z"/><linearGradient id="i" gradientUnits="userSpaceOnUse" x1="672.3955" y1="367.2983" x2="1256.7101" y2="753.3998"><stop offset="0" stop-color="#747eb6"/><stop offset=".5907" stop-color="#8c9cd1"/><stop offset=".9949" stop-color="#98abdf"/></linearGradient><path fill="url(#i)" d="M994.496 590.823l-5.833 17.501 344.178 163.338z"/><path fill="#747EB6" d="M1367.842 719.161l-5.833 11.667L1554.515 900z"/><path fill="#95A5DF" d="M731.988 900l-90.744-116.67L647.727 900z"/><linearGradient id="j" gradientUnits="userSpaceOnUse" x1="1376.2383" y1="691.5381" x2="1390.4667" y2="1230.4392"><stop offset="0" stop-color="#475791"/><stop offset=".1872" stop-color="#4f5f98"/><stop offset=".478" stop-color="#6475ad"/><stop offset=".8341" stop-color="#8699ce"/><stop offset=".9949" stop-color="#98abdf"/></linearGradient><path fill="url(#j)" d="M1554.515 900l-350.011-169.172L1425.113 900z"/><linearGradient id="k" gradientUnits="userSpaceOnUse" x1="1460.2266" y1="689.3213" x2="1474.455" y2="1228.2241"><stop offset="0" stop-color="#475791"/><stop offset=".1872" stop-color="#4f5f98"/><stop offset=".478" stop-color="#6475ad"/><stop offset=".8341" stop-color="#8699ce"/><stop offset=".9949" stop-color="#98abdf"/></linearGradient><path fill="url(#k)" d="M1373.676 771.662L1554.515 900h-71.342z"/><linearGradient id="l" gradientUnits="userSpaceOnUse" x1="1236.5664" y1="695.2275" x2="1250.7947" y2="1234.1262"><stop offset="0" stop-color="#475791"/><stop offset=".1872" stop-color="#4f5f98"/><stop offset=".478" stop-color="#6475ad"/><stop offset=".8341" stop-color="#8699ce"/><stop offset=".9949" stop-color="#98abdf"/></linearGradient><path fill="url(#l)" d="M971.162 707.494L1507.7 900h-352.016z"/><linearGradient id="m" gradientUnits="userSpaceOnUse" x1="946.7944" y1="702.877" x2="961.0228" y2="1241.7788"><stop offset="0" stop-color="#475791"/><stop offset=".1872" stop-color="#4f5f98"/><stop offset=".478" stop-color="#6475ad"/><stop offset=".8341" stop-color="#8699ce"/><stop offset=".9949" stop-color="#98abdf"/></linearGradient><path fill="url(#m)" d="M803.157 672.492L943.161 900h151.672z"/><linearGradient id="n" gradientUnits="userSpaceOnUse" x1="1100.9346" y1="698.8086" x2="1115.1628" y2="1237.7048"><stop offset="0" stop-color="#475791"/><stop offset=".1872" stop-color="#4f5f98"/><stop offset=".478" stop-color="#6475ad"/><stop offset=".8341" stop-color="#8699ce"/><stop offset=".9949" stop-color="#98abdf"/></linearGradient><path fill="url(#n)" d="M982.83 764.104L1226.075 900h-151.522z"/><linearGradient id="o" gradientUnits="userSpaceOnUse" x1="873.958" y1="704.8008" x2="888.1864" y2="1243.7015"><stop offset="0" stop-color="#475791"/><stop offset=".1872" stop-color="#4f5f98"/><stop offset=".478" stop-color="#6475ad"/><stop offset=".8341" stop-color="#8699ce"/><stop offset=".9949" stop-color="#98abdf"/></linearGradient><path fill="url(#o)" d="M778.656 713.327L974.639 900H863.473z"/><linearGradient id="p" gradientUnits="userSpaceOnUse" x1="673.1787" y1="307.0957" x2="1482.792" y2="820.6561"><stop offset="0" stop-color="#fff"/><stop offset=".3349" stop-color="#f5f7ff"/><stop offset=".9949" stop-color="#e6ebff"/></linearGradient><path fill="url(#p)" d="M1367.842 719.161L1554.515 900l-169.172-175.006z"/><linearGradient id="q" gradientUnits="userSpaceOnUse" x1="589.5806" y1="438.8887" x2="1399.1917" y2="952.4477"><stop offset="0" stop-color="#fff"/><stop offset=".3349" stop-color="#f5f7ff"/><stop offset=".9949" stop-color="#e6ebff"/></linearGradient><path fill="url(#q)" d="M673.653 503.32h35.001l280.009 187.84z"/><linearGradient id="r" gradientUnits="userSpaceOnUse" x1="617.4824" y1="394.9009" x2="1427.0933" y2="908.4597"><stop offset="0" stop-color="#fff"/><stop offset=".3349" stop-color="#f5f7ff"/><stop offset=".9949" stop-color="#e6ebff"/></linearGradient><path fill="url(#r)" d="M883.659 573.323l23.335-5.834 338.344 204.173-233.341-105.003z"/><linearGradient id="s" gradientUnits="userSpaceOnUse" x1="644.6763" y1="352.0308" x2="1454.2854" y2="865.5885"><stop offset="0" stop-color="#fff"/><stop offset=".3349" stop-color="#f5f7ff"/><stop offset=".9949" stop-color="#e6ebff"/></linearGradient><path fill="url(#s)" d="M1332.841 771.662L994.496 590.823l23.334-5.833z"/><linearGradient id="t" gradientUnits="userSpaceOnUse" x1="560.2217" y1="485.1748" x2="1369.8311" y2="998.7327"><stop offset="0" stop-color="#fff"/><stop offset=".3349" stop-color="#f5f7ff"/><stop offset=".9949" stop-color="#e6ebff"/></linearGradient><path fill="url(#t)" d="M614.151 485.82l-4.667 64.168 373.346 180.84z"/></g><g fill="#475791"><path d="M.795 755.035V900H594zM1919.865 679.035L1686 820.368 1182 900h737.865z"/></g><g fill="#1E3152"><path d="M1782.024 900l15.121-61.957 15.12 61.957zM1389.254 900l15.121-61.957 15.12 61.957zM1129.54 900l15.12-61.957L1159.781 900zM796.901 900l15.12-61.957L827.142 900zM1729.569 900l11.922-48.852L1753.413 900zM1449.386 900l11.921-48.852L1473.229 900zM1831.583 900l18.054-73.975L1867.689 900z"/><path d="M1864.84 900l27.58-113.012L1920 900zM1744.99 900l19.774-81.027L1784.538 900zM134.792 900l24.411-100.026L183.614 900z"/><path d="M177.338 900l29.141-119.409L235.62 900zM46.841 900l22.744-93.197L92.329 900zM1587.215 900l22.896-93.821L1633.008 900zM528.384 900l18.167-74.439L564.717 900z"/><path d="M507.762 900l11.922-48.852L531.605 900zM1059.161 900l7.176-29.403 7.175 29.403zM1564.516 900l7.175-29.403 7.176 29.403zM278.739 900l7.176-29.403L293.091 900zM759.786 900l7.176-29.403L774.137 900z"/><path d="M488.57 900l11.923-48.852L512.414 900zM552.196 900l29.141-119.409L610.479 900z"/><path d="M449.846 900l22.896-93.821L495.639 900zM1249.458 900l22.897-93.821L1295.251 900zM1409.381 900l22.896-93.821L1455.174 900zM334.701 900l22.897-93.821L380.494 900zM927.398 900l8.723-35.745L944.845 900zM410.528 900l15.121-61.957L440.77 900zM1196.068 900l15.12-61.957L1226.309 900z"/><path d="M1175.598 900l15.121-61.957 15.12 61.957zM1282.729 900l18.053-73.975L1318.835 900zM1465.674 900l29.14-119.409L1523.955 900zM1805.053 900l11.922-48.852L1828.896 900z"/><path d="M1821.342 900l29.14-119.409L1879.623 900zM1048.926 900l7.176-29.403 7.175 29.403zM1164.07 900l7.176-29.403 7.176 29.403z"/><path d="M1153.835 900l7.176-29.403 7.176 29.403zM1006.706 900l7.176-29.403 7.176 29.403zM823.755 900l7.176-29.403L838.106 900zM606.261 900l7.175-29.403L620.611 900zM438.661 900l7.176-29.403L453.013 900zM35.67 900l11.922-48.852L59.514 900z"/><path d="M0 900l18.166-74.439L36.333 900zM206.764 900l22.744-93.197L252.252 900zM371.804 900l22.896-93.821L417.597 900z"/></g><path fill="#FFF" d="M1407.158 479.297c1.11-.165 2.23-.242 3.379-.242 13.328 0 24.128 10.801 24.128 24.129 0 13.329-10.8 24.129-24.128 24.129-1.148 0-2.269-.077-3.379-.241 11.727-1.631 20.751-11.708 20.751-23.888s-9.024-22.256-20.751-23.887z"/></svg>